<?xml version="1.0" encoding="utf-8"?>
<!-- Generator: Adobe Illustrator 22.0.1, SVG Export Plug-In . SVG Version: 6.00 Build 0)  -->
<svg version="1.1" id="Firefox_-_Large" xmlns="http://www.w3.org/2000/svg" xmlns:xlink="http://www.w3.org/1999/xlink" x="0px"
	 y="0px" viewBox="0 0 953.4 984" style="enable-background:new 0 0 953.4 984;" xml:space="preserve">
<style type="text/css">
	.st0{fill:url(#SVGID_1_);}
	.st1{fill:url(#_Path__1_);}
	.st2{fill:url(#SVGID_2_);}
	.st3{fill:url(#SVGID_3_);}
	.st4{fill:url(#SVGID_4_);}
	.st5{fill:url(#SVGID_5_);}
	.st6{fill:url(#SVGID_6_);}
	.st7{fill:url(#SVGID_7_);}
	.st8{fill:url(#SVGID_8_);}
	.st9{fill:url(#SVGID_9_);}
	.st10{fill:url(#SVGID_10_);}
	.st11{fill:url(#SVGID_11_);}
	.st12{fill:url(#SVGID_12_);}
	.st13{fill:url(#SVGID_13_);}
</style>
<title>firefox-logo</title>
<g>
	
		<radialGradient id="SVGID_1_" cx="-14519.9404" cy="9349.2949" r="450.875" fx="-14548.6992" fy="9349.2949" gradientTransform="matrix(0.762 3.400000e-02 5.000000e-02 -1.12 11504.9189 11211.085)" gradientUnits="userSpaceOnUse">
		<stop  offset="4.500000e-02" style="stop-color:#FFEA00"/>
		<stop  offset="0.12" style="stop-color:#FFDE00"/>
		<stop  offset="0.254" style="stop-color:#FFBF00"/>
		<stop  offset="0.429" style="stop-color:#FF8E00"/>
		<stop  offset="0.769" style="stop-color:#FF272D"/>
		<stop  offset="0.872" style="stop-color:#E0255A"/>
		<stop  offset="0.953" style="stop-color:#CC2477"/>
		<stop  offset="1" style="stop-color:#C42482"/>
	</radialGradient>
	<path class="st0" d="M770.3,91.6c-23.9,27.9-35.1,90.6-10.8,154.3s61.5,49.8,84.7,114.7c30.6,85.6,16.4,200.6,16.4,200.6
		s36.8,106.6,62.5-6.6C979.8,341.7,770.3,143.9,770.3,91.6z"/>
	
		<radialGradient id="_Path__1_" cx="-7562.4648" cy="8941.4043" r="791.229" gradientTransform="matrix(1.225 0 0 -1.225 9927.1377 11146.3525)" gradientUnits="userSpaceOnUse">
		<stop  offset="0" style="stop-color:#00CCDA"/>
		<stop  offset="0.22" style="stop-color:#0083FF"/>
		<stop  offset="0.261" style="stop-color:#007AF9"/>
		<stop  offset="0.33" style="stop-color:#0060E8"/>
		<stop  offset="0.333" style="stop-color:#005FE7"/>
		<stop  offset="0.438" style="stop-color:#2639AD"/>
		<stop  offset="0.522" style="stop-color:#401E84"/>
		<stop  offset="0.566" style="stop-color:#4A1475"/>
	</radialGradient>
	<path id="_Path_" class="st1" d="M478.1,974.6c245.2,0,443.9-199.7,443.9-446s-198.7-446-443.7-446S34.7,282.3,34.7,528.6
		C34.2,775.1,233.1,974.6,478.1,974.6z"/>
	
		<linearGradient id="SVGID_2_" gradientUnits="userSpaceOnUse" x1="540.6489" y1="290.8059" x2="349.2109" y2="917.0339" gradientTransform="matrix(1 0 0 -1 0 1020)">
		<stop  offset="0" style="stop-color:#000F43;stop-opacity:0.4"/>
		<stop  offset="0.485" style="stop-color:#001962;stop-opacity:0.173"/>
		<stop  offset="1" style="stop-color:#002079;stop-opacity:0"/>
	</linearGradient>
	<path class="st2" d="M810.7,803.6c-9.6,6.8-19.7,12.8-30.1,18.2c13.9-20.3,26.6-41.3,38.3-63c9.5-10.5,18.1-20.6,25.2-31.7
		c3.4-5.4,7.3-12.1,11.4-19.8c24.9-44.9,52.4-117.6,53.2-192.2V515c0-1.8,0-3.7,0-5.5c0.1-18.7-1.8-37.4-5.7-55.7
		c0.2,1.4,0.4,2.9,0.6,4.3c-0.2-1.1-0.4-2.2-0.6-3.3c0.4,2,0.7,4,1,6c5.1,43.2,1.5,85.4-16.7,116.4c-0.3,0.5-0.6,0.9-0.9,1.3
		c9.4-47.2,12.6-99.4,2.1-151.6c0,0-4.2-25.4-35.4-102.4c-18-44.4-49.8-80.7-78-107.2c-24.7-30.5-47.1-51-59.5-64.1
		c-25.8-27.2-36.6-47.6-41.1-60.9c-3.9-1.9-53.1-49.8-57-51.6c-21.5,33.4-89.2,137.7-57,235.1c14.6,44.2,51.5,90,90.1,115.7
		c1.7,1.9,23,25,33.1,77.2c10.4,53.8,5,95.9-16.5,158c-25.3,54.5-90.1,108.4-150.7,113.9c-129.7,11.8-177.1-65.1-177.1-65.1
		c46.3,18.5,97.6,14.7,128.7-4.6c31.4-19.4,50.4-33.8,65.8-28.1c15.2,5.7,27.3-10.8,16.4-27.8c-17.1-26.4-48.4-40-79.4-34.6
		c-31.4,5.1-60.2,30-101.4,5.9c-2.7-1.5-5.2-3.2-7.7-5.1c-2.7-1.8,8.8,2.7,6.1,0.7c-8-4.4-22.2-13.8-25.9-17.2
		c-0.6-0.6,6.2,2.2,5.6,1.6c-38.5-31.7-33.7-53.1-32.5-66.6c1-10.7,8-24.5,19.8-30.1c5.7,3.1,9.2,5.5,9.2,5.5s-2.4-5-3.7-7.6
		c0.5-0.2,0.9-0.1,1.4-0.3c4.7,2.3,15,8.1,20.4,11.7c7.1,5,9.3,9.4,9.3,9.4s1.9-1,0.5-5.4c-0.5-1.8-2.6-7.5-9.7-13.2l0.4,0
		c4.2,2.4,8.2,5.1,11.9,8.2c2-7.2,5.5-14.7,4.7-28.1c-0.5-9.4-0.3-11.9-1.9-15.5c-1.5-3.1,0.8-4.3,3.4-1.1c-0.4-2.5-1.2-5-2.2-7.4
		l0-0.2c3.2-11.2,68.2-40.5,73-43.9c7.8-5.5,14.3-12.6,19.1-20.8c3.6-5.8,6.3-13.8,7-26.1c0.4-8.8-3.8-14.7-69.5-21.6
		c-18-1.8-28.5-14.8-34.5-26.8c-1.1-2.6-2.2-4.9-3.3-7.3c-1.1-2.7-1.9-5.6-2.6-8.4c10.7-30.9,28.8-57,55.4-76.7
		c1.4-1.3-5.8,0.3-4.3-1c1.7-1.5,12.7-6,14.8-7c2.5-1.2-10.9-6.9-22.7-5.5c-12.1,1.4-14.6,2.8-21.1,5.5c2.7-2.7,11.2-6.1,9.2-6.1
		c-13,2-29.2,9.6-43,18.1c0-1.5,0.3-3,0.8-4.3c-6.4,2.7-22.3,13.8-26.9,23.1c0.2-1.8,0.3-3.6,0.3-5.4c-4.9,4.1-9.3,8.7-13.2,13.8
		l-0.2,0.2c-37.4-15.1-70.2-16-98.1-9.3c-6.1-6.1-9.1-1.6-22.9-32.1c-0.9-1.8,0.7,1.8,0,0c-2.3-5.9,1.4,7.9,0,0
		c-23.3,18.4-53.9,39.2-68.6,53.9c-0.2,0.6,17.2-4.9,0,0c-6,1.7-5.6,5.3-6.5,37.5c-0.2,2.4,0,5.2-0.2,7.4
		c-11.7,15-19.7,27.6-22.8,34.2c-15.2,26.2-31.9,67-48.1,131.6c7.2-17.5,15.8-34.4,25.8-50.4c-13.5,34.3-26.5,88.1-29.1,170.9
		c3.3-17.1,7.4-34,12.5-50.7c-3.2,68.7,8.7,137.4,34.7,201.1c9.3,22.8,24.8,57.5,51,95.4C226.9,902,343.3,956,472.2,956
		C606.8,956,727.6,897.1,810.7,803.6z"/>
	
		<radialGradient id="SVGID_3_" cx="-8294.6689" cy="7535.3179" r="266.886" gradientTransform="matrix(1.219 0.123 0.123 -1.219 10177.0713 10841.249)" gradientUnits="userSpaceOnUse">
		<stop  offset="3.000000e-03" style="stop-color:#FFEA00"/>
		<stop  offset="0.497" style="stop-color:#FF272D"/>
		<stop  offset="1" style="stop-color:#C42482"/>
	</radialGradient>
	<path class="st3" d="M711.1,866.7c162.9-18.9,235-186.7,142.4-190C769.8,674,634,875.6,711.1,866.7z"/>
	
		<radialGradient id="SVGID_4_" cx="-8318.8154" cy="7791.2295" r="445.678" gradientTransform="matrix(1.219 0.123 0.123 -1.219 10177.0713 10841.249)" gradientUnits="userSpaceOnUse">
		<stop  offset="3.000000e-03" style="stop-color:#FFE900"/>
		<stop  offset="0.157" style="stop-color:#FFAF0E"/>
		<stop  offset="0.316" style="stop-color:#FF7A1B"/>
		<stop  offset="0.472" style="stop-color:#FF4E26"/>
		<stop  offset="0.621" style="stop-color:#FF2C2E"/>
		<stop  offset="0.762" style="stop-color:#FF1434"/>
		<stop  offset="0.892" style="stop-color:#FF0538"/>
		<stop  offset="1" style="stop-color:#FF0039"/>
	</radialGradient>
	<path class="st4" d="M865.2,642.4C977.3,577.2,948,436.3,948,436.3s-43.2,50.2-72.6,130.3C846.4,646,797.8,681.8,865.2,642.4z"/>
	
		<radialGradient id="SVGID_5_" cx="-8255.7793" cy="7378.0938" r="408.958" gradientTransform="matrix(1.219 0.123 0.123 -1.219 10177.0713 10841.249)" gradientUnits="userSpaceOnUse">
		<stop  offset="3.000000e-03" style="stop-color:#FF272D"/>
		<stop  offset="0.497" style="stop-color:#C42482"/>
		<stop  offset="0.986" style="stop-color:#620700"/>
	</radialGradient>
	<path class="st5" d="M509.5,950.1c156.2,49.9,290.5-73.2,207.7-114.3C642,798.7,435.3,926.5,509.5,950.1z"/>
	
		<radialGradient id="SVGID_6_" cx="715.189" cy="625.959" r="782.18" fx="743.1665" fy="612.1304" gradientTransform="matrix(1 0 0 -1 0 1020)" gradientUnits="userSpaceOnUse">
		<stop  offset="0.156" style="stop-color:#FFEA00"/>
		<stop  offset="0.231" style="stop-color:#FFDE00"/>
		<stop  offset="0.365" style="stop-color:#FFBF00"/>
		<stop  offset="0.541" style="stop-color:#FF8E00"/>
		<stop  offset="0.763" style="stop-color:#FF272D"/>
		<stop  offset="0.796" style="stop-color:#F92433"/>
		<stop  offset="0.841" style="stop-color:#E91C45"/>
		<stop  offset="0.893" style="stop-color:#CF0E62"/>
		<stop  offset="0.935" style="stop-color:#B5007F"/>
	</radialGradient>
	<path class="st6" d="M876.8,702.2c3.8-5.4,8.9-22.5,13.5-30.2c27.6-44.5,27.8-80,27.8-80.8c16.7-83.2,15.1-117.2,4.9-180
		c-8.3-50.6-44.3-123.1-75.6-158c-32.2-36-9.5-24.2-40.7-50.5c-27.3-30.3-53.8-60.3-68.3-72.4C634.2,43.1,636.6,24.6,638.6,21.4
		c-0.3,0.4-0.8,0.9-1.5,1.6c-1.2-4.9-2.1-9.1-2.1-9.1s-57,57-69,152c-7.8,62,15.4,126.7,49,168c17.5,21.4,37.3,40.9,59,58v0
		c25.4,36.5,39.4,81.5,39.4,129.9c0,121.2-98.3,219.5-219.7,219.5c-16.5,0-33-1.8-49.1-5.5c-57.2-10.9-90.3-39.8-106.8-59.4
		c-9.4-11.2-13.5-19.4-13.5-19.4c51.3,18.4,108,14.5,142.5-4.5c34.7-19.3,55.8-33.5,72.8-27.9c16.8,5.6,30.2-10.7,18.2-27.5
		c-11.8-16.8-42.4-41-87.9-34.3c-34.8,5.1-66.7,29.8-112.2,5.8c-2.9-1.5-5.8-3.2-8.6-5c-3-1.8,9.8,2.7,6.8,0.7
		c-8.9-4.3-24.6-13.7-28.6-17.1c-0.7-0.6,6.9,2.2,6.2,1.6c-42.6-31.4-37.3-52.7-36-66c1.1-10.7,8.8-24.3,21.9-29.9
		c6.3,3.1,10.2,5.4,10.2,5.4s-2.7-4.9-4.1-7.5c0.5-0.2,1-0.1,1.5-0.3c5.2,2.2,16.6,8,22.6,11.6c7.8,4.9,10.3,9.4,10.3,9.4
		s2.1-1,0.5-5.3c-0.6-1.8-2.9-7.4-10.7-13.1l0.5,0c4.6,2.3,9,5.1,13.1,8.2c2.2-7.1,6.1-14.6,5.3-27.9c-0.5-9.4-0.3-11.8-2.1-15.4
		c-1.6-3.1,0.9-4.3,3.8-1.1c-0.5-2.5-1.3-5-2.4-7.3l0-0.2c3.6-11.1,75.5-40.1,80.8-43.5c8.4-5.3,15.7-12.3,21.2-20.6
		c4-5.7,7-13.7,7.7-25.9c0.2-5.5-1.4-9.8-20.5-14c-11.4-2.5-29.1-4.9-56.4-7.5c-19.9-1.8-31.6-14.7-38.2-26.6
		c-1.2-2.6-2.4-4.9-3.7-7.2c-1.2-2.7-2.1-5.5-2.8-8.4c11.9-31.2,33.4-57.8,61.3-76.1c1.6-1.3-6.4,0.3-4.8-1
		c1.9-1.5,14.1-5.9,16.4-6.9c2.8-1.2-12-6.8-25.2-5.5c-13.4,1.3-16.2,2.8-23.3,5.5c3-2.6,12.4-6.1,10.2-6.1
		c-14.4,2-32.3,9.5-47.6,18c0-1.5,0.3-3,0.9-4.3c-7.1,2.7-24.6,13.7-29.7,22.9c0.2-1.8,0.3-3.6,0.3-5.4c-5.4,4-10.3,8.6-14.6,13.7
		l-0.3,0.2C258.1,196,221.7,195,191,201.7c-6.7-6.1-17.6-15.2-32.9-45.4c-1-1.8-1.6,3.8-2.4,2c-6-13.8-9.6-36.4-9-52
		c0,0-12.3,5.6-22.5,29.1c-1.9,4.2-3.1,6.5-4.3,8.9c-0.6,0.7,1.3-7.7,1-7.2c-1.8,3-6.4,7.2-8.4,12.6c-1.4,4-3.3,6.3-4.6,11.3
		l-0.3,0.5c-0.1-1.5,0.4-6.1,0-5.1c-4.8,9.7-8.9,19.6-12.3,29.8c-5.5,18-11.9,42.6-12.9,74.6c-0.2,2.4,0,5.1-0.2,7.3
		c-13,14.8-21.9,27.4-25.2,33.9c-16.8,26-35.3,66.4-53.3,130.5c8-17.5,17.5-34.2,28.5-50C17.3,416.3,2.9,469.6,0,551.8
		c3.6-17,8.3-33.8,13.9-50.2c-2.6,54.8,3.8,122.7,38.4,199.4c20.6,45.1,67.9,136.6,183.6,208.1l0,0c0,0,39.4,29.3,107,51.3
		c5,1.8,10.1,3.6,15.2,5.3c-1.6-0.7-3.2-1.3-4.7-2.1c45,13.5,91.8,20.4,138.8,20.4c175.2,0.1,226.8-70.2,226.8-70.2
		s-0.2,0.1-0.5,0.4c2.5-2.3,4.9-4.7,7.1-7.3c-27.6,26.1-90.7,27.8-114.3,25.9c40.2-11.8,66.7-21.8,118.2-41.5
		c6-2.2,12.2-4.8,18.5-7.6c0.7-0.3,1.4-0.6,2.1-0.9c1.2-0.6,2.5-1.1,3.7-1.7c25.1-11.8,48.7-26.6,70.3-44
		c51.7-41.3,62.9-81.6,68.8-108.1c-0.8,2.5-3.4,8.5-5.2,12.3c-13.3,28.5-42.8,46-74.9,60.9c15.3-20,29.4-40.9,42.4-62.4
		C865.8,729.4,869,713.1,876.8,702.2z"/>
	
		<radialGradient id="SVGID_7_" cx="656.339" cy="1018.711" r="923.615" gradientTransform="matrix(1 0 0 -1 0 1020)" gradientUnits="userSpaceOnUse">
		<stop  offset="0.279" style="stop-color:#FFEA00"/>
		<stop  offset="0.402" style="stop-color:#FFDD00"/>
		<stop  offset="0.63" style="stop-color:#FFBA00"/>
		<stop  offset="0.856" style="stop-color:#FF9100"/>
		<stop  offset="0.933" style="stop-color:#FF6711"/>
		<stop  offset="0.994" style="stop-color:#FF4A1D"/>
	</radialGradient>
	<path class="st7" d="M813.9,801c21.1-23.2,40-49.8,54.3-80c36.9-77.6,94-206.6,49-341.3C881.8,273.2,833,215,771.1,158.1
		C670.6,65.8,642.5,24.5,642.5,0c0,0-116.1,129.4-65.7,264.4s153.5,130,221.7,270.9c80.3,165.7-64.9,346.6-185,397.2
		c7.4-1.6,267-60.4,280.6-208.9C893.7,726.3,887.8,767.4,813.9,801z"/>
	
		<linearGradient id="SVGID_8_" gradientUnits="userSpaceOnUse" x1="-8977.3252" y1="7692.3711" x2="-8692.9639" y2="7764.855" gradientTransform="matrix(1.219 0.123 0.123 -1.219 10177.0713 10841.249)">
		<stop  offset="0" style="stop-color:#C42482;stop-opacity:0.5"/>
		<stop  offset="0.474" style="stop-color:#FF272D;stop-opacity:0.5"/>
		<stop  offset="0.486" style="stop-color:#FF2C2C;stop-opacity:0.513"/>
		<stop  offset="0.675" style="stop-color:#FF7A1A;stop-opacity:0.72"/>
		<stop  offset="0.829" style="stop-color:#FFB20D;stop-opacity:0.871"/>
		<stop  offset="0.942" style="stop-color:#FFD605;stop-opacity:0.964"/>
		<stop  offset="1" style="stop-color:#FFE302"/>
	</linearGradient>
	<path class="st8" d="M477.6,319.4c0.4-8.8-4.2-14.7-76.7-21.5c-29.8-2.8-41.3-30.3-44.7-41.9c-10.6,27.6-15,56.5-12.6,91.5
		c1.6,22.9,17,47.5,24.4,62c0,0,1.6-2.1,2.4-2.9c13.9-14.4,71.9-36.4,77.4-39.5C453.7,363.2,476.6,346.4,477.6,319.4z"/>
	
		<linearGradient id="SVGID_9_" gradientUnits="userSpaceOnUse" x1="209.2893" y1="2102.7837" x2="154.7173" y2="2242.6306" gradientTransform="matrix(0.995 0.1 0.1 -0.995 -274.811 2331.1912)">
		<stop  offset="0" style="stop-color:#891551;stop-opacity:0.6"/>
		<stop  offset="1" style="stop-color:#C42482;stop-opacity:0"/>
	</linearGradient>
	<path class="st9" d="M158.3,156.5c-1-1.8-1.6,3.8-2.4,2c-6-13.8-9.6-36.2-8.7-52c0,0-12.3,5.6-22.5,29.1c-1.9,4.2-3.1,6.5-4.3,8.9
		c-0.6,0.7,1.3-7.7,1-7.2c-1.8,3-6.4,7.2-8.3,12.4c-1.7,4.2-3.3,6.5-4.6,11.8c-0.4,1.4,0.4-6.3,0.1-5.4
		C84.7,201.7,80.2,271,82.7,268c50.5-53.9,108.3-66.7,108.3-66.7C184.9,196.8,171.5,183.7,158.3,156.5L158.3,156.5z"/>
	
		<linearGradient id="SVGID_10_" gradientUnits="userSpaceOnUse" x1="-14.1418" y1="301.8756" x2="79.9662" y2="194.9887" gradientTransform="matrix(0.995 0.1 0.1 -0.995 204.324 770.779)">
		<stop  offset="5.000000e-03" style="stop-color:#891551;stop-opacity:0.5"/>
		<stop  offset="0.484" style="stop-color:#FF272D;stop-opacity:0.5"/>
		<stop  offset="1" style="stop-color:#FF272D;stop-opacity:0"/>
	</linearGradient>
	<path class="st10" d="M349.8,720.1c-69.7-29.8-149-71.8-146-167.1C207.9,427.3,321,452.2,321,452.2c-4.3,1-15.7,9.2-19.7,17.8
		c-4.3,10.8-12.1,35.3,11.6,60.9c37.1,40.2-76.2,95.4,98.7,199.6C415.9,732.9,370.5,729,349.8,720.1L349.8,720.1z"/>
	
		<linearGradient id="SVGID_11_" gradientUnits="userSpaceOnUse" x1="163.8798" y1="116.1238" x2="163.9468" y2="190.9048" gradientTransform="matrix(0.995 0.1 0.1 -0.995 204.324 770.779)">
		<stop  offset="0" style="stop-color:#C42482"/>
		<stop  offset="8.299999e-02" style="stop-color:#C42482;stop-opacity:0.81"/>
		<stop  offset="0.206" style="stop-color:#C42482;stop-opacity:0.565"/>
		<stop  offset="0.328" style="stop-color:#C42482;stop-opacity:0.362"/>
		<stop  offset="0.447" style="stop-color:#C42482;stop-opacity:0.204"/>
		<stop  offset="0.562" style="stop-color:#C42482;stop-opacity:9.100000e-02"/>
		<stop  offset="0.673" style="stop-color:#C42482;stop-opacity:2.300000e-02"/>
		<stop  offset="0.773" style="stop-color:#C42482;stop-opacity:0"/>
	</linearGradient>
	<path class="st11" d="M325.1,657.5c49.4,17.2,107,14.2,141.5-4.9c23.1-12.9,52.7-33.4,70.9-28.4c-15.8-6.2-27.7-9.2-42.1-9.9
		c-2.4,0-5.4-0.1-8-0.3c-5.3,0-10.5,0.3-15.8,0.9c-8.9,0.8-18.8,6.4-27.7,5.5c-0.5,0,8.7-3.8,8-3.6c-4.8,1-9.9,1.2-15.4,1.9
		c-3.5,0.4-6.4,0.8-9.9,1c-103,8.7-190-55.8-190-55.8C229.1,588.9,269.7,638.2,325.1,657.5L325.1,657.5z"/>
	
		<linearGradient id="SVGID_12_" gradientUnits="userSpaceOnUse" x1="620.5307" y1="983.8799" x2="926.1867" y2="300.3849" gradientTransform="matrix(1 0 0 -1 0 1020)">
		<stop  offset="0" style="stop-color:#FFF14F"/>
		<stop  offset="0.268" style="stop-color:#FFEE4C"/>
		<stop  offset="0.452" style="stop-color:#FFE643"/>
		<stop  offset="0.612" style="stop-color:#FFD834"/>
		<stop  offset="0.757" style="stop-color:#FFC41E"/>
		<stop  offset="0.892" style="stop-color:#FFAB02"/>
		<stop  offset="0.902" style="stop-color:#FFA900"/>
		<stop  offset="0.949" style="stop-color:#FFA000"/>
		<stop  offset="1" style="stop-color:#FF9100"/>
	</linearGradient>
	<path class="st12" d="M813.7,801.6c104.2-102.3,156.9-226.6,134.6-366c0,0,8.9,71.5-24.8,144.6c16.2-71.4,18.1-160.1-25-252
		c-57.5-122.6-152-187.2-188.1-214.1c-54.7-40.8-77.4-82.3-77.8-90.9c-16.3,33.5-65.8,148.2-5.3,247
		c56.6,92.6,145.9,120,208.3,204.9C950.7,631.7,813.7,801.6,813.7,801.6z"/>
	
		<linearGradient id="SVGID_13_" gradientUnits="userSpaceOnUse" x1="680.8852" y1="590.7899" x2="536.0982" y2="202.0399" gradientTransform="matrix(1 0 0 -1 0 1020)">
		<stop  offset="0" style="stop-color:#FF8E00"/>
		<stop  offset="4.000000e-02" style="stop-color:#FF8E00;stop-opacity:0.858"/>
		<stop  offset="8.400000e-02" style="stop-color:#FF8E00;stop-opacity:0.729"/>
		<stop  offset="0.13" style="stop-color:#FF8E00;stop-opacity:0.628"/>
		<stop  offset="0.178" style="stop-color:#FF8E00;stop-opacity:0.557"/>
		<stop  offset="0.227" style="stop-color:#FF8E00;stop-opacity:0.514"/>
		<stop  offset="0.282" style="stop-color:#FF8E00;stop-opacity:0.5"/>
		<stop  offset="0.389" style="stop-color:#FF8E00;stop-opacity:0.478"/>
		<stop  offset="0.524" style="stop-color:#FF8E00;stop-opacity:0.416"/>
		<stop  offset="0.676" style="stop-color:#FF8E00;stop-opacity:0.314"/>
		<stop  offset="0.838" style="stop-color:#FF8E00;stop-opacity:0.172"/>
		<stop  offset="1" style="stop-color:#FF8E00;stop-opacity:0"/>
	</linearGradient>
	<path class="st13" d="M798.8,535.6C762.4,460.4,717,427.5,674,392c5,7,6.2,9.5,9,14c37.8,40.3,93.6,138.7,53.1,262.1
		C659.9,900.5,355,791.1,323,760.3c12.9,134.5,238,198.8,384.6,111.6C791,793,858.5,658.8,798.8,535.6z"/>
</g>
</svg>
